<svg width="634" height="259" viewBox="0 0 634 259" xmlns="http://www.w3.org/2000/svg"><g fill="none"><path d="M.9 15.804h62.7c10.2 0 19.55.85 28.05 2.55 8.5 1.7 15.9 4.4 22.2 8.1 6.3 3.7 11.2 8.65 14.7 14.85 3.5 6.2 5.25 13.8 5.25 22.8 0 9.4-2.75 18.1-8.25 26.1s-13.95 13.5-25.35 16.5v1.2c14.2 2.4 25.05 7.45 32.55 15.15 7.5 7.7 11.25 18.15 11.25 31.35 0 9.8-1.9 18.3-5.7 25.5-3.8 7.2-9.05 13.2-15.75 18-6.7 4.8-14.65 8.35-23.85 10.65-9.2 2.3-19.2 3.45-30 3.45H.9v-196.2zm59.7 81.3c13.8 0 23.75-2.5 29.85-7.5 6.1-5 9.15-12.1 9.15-21.3 0-9-3.2-15.5-9.6-19.5-6.4-4-16-6-28.8-6H35.7v54.3h24.9zm4.5 87.9c14.4 0 25.5-2.7 33.3-8.1 7.8-5.4 11.7-13.7 11.7-24.9 0-10.2-3.8-17.75-11.4-22.65-7.6-4.9-18.8-7.35-33.6-7.35H35.7v63h29.4zm102.272-46.5c0-12.2 1.9-23.1 5.7-32.7 3.8-9.6 8.95-17.7 15.45-24.3 6.5-6.6 13.95-11.65 22.35-15.15 8.4-3.5 17.2-5.25 26.4-5.25s18.05 1.75 26.55 5.25 15.95 8.55 22.35 15.15c6.4 6.6 11.55 14.7 15.45 24.3 3.9 9.6 5.85 20.5 5.85 32.7 0 12.2-1.95 23.1-5.85 32.7-3.9 9.6-9.05 17.7-15.45 24.3-6.4 6.6-13.85 11.6-22.35 15-8.5 3.4-17.35 5.1-26.55 5.1s-18-1.7-26.4-5.1c-8.4-3.4-15.85-8.4-22.35-15-6.5-6.6-11.65-14.7-15.45-24.3-3.8-9.6-5.7-20.5-5.7-32.7zm35.4 0c0 14.8 3.05 26.65 9.15 35.55 6.1 8.9 14.55 13.35 25.35 13.35s19.3-4.45 25.5-13.35c6.2-8.9 9.3-20.75 9.3-35.55 0-15-3.1-26.95-9.3-35.85-6.2-8.9-14.7-13.35-25.5-13.35s-19.25 4.45-25.35 13.35c-6.1 8.9-9.15 20.85-9.15 35.85zM335.192.204h34.5v175.8c0 4.2.8 7.15 2.4 8.85 1.6 1.7 3.3 2.55 5.1 2.55h2.25c.7 0 1.75-.2 3.15-.6l4.5 25.8c-4.6 2-10.7 3-18.3 3-12.4 0-21.1-3.7-26.1-11.1-5-7.4-7.5-17.5-7.5-30.3v-174zm86.373 91.8h-21v-25.8l22.8-1.5 4.2-40.2h28.8v40.2h37.5v27.3h-37.5v70.2c0 17.2 6.9 25.8 20.7 25.8 2.6 0 5.25-.3 7.95-.9 2.7-.6 5.15-1.4 7.35-2.4l6 25.5c-4 1.4-8.55 2.65-13.65 3.75s-10.55 1.65-16.35 1.65c-8.6 0-15.85-1.3-21.75-3.9-5.9-2.6-10.7-6.25-14.4-10.95-3.7-4.7-6.4-10.3-8.1-16.8-1.7-6.5-2.55-13.75-2.55-21.75v-70.2z" fill="#000"/><path fill="#204460" d="M523.888 241.287l-16.24-63.325 46.803-45.644 63.05 17.68 16.24 63.327-46.8 45.643-63.042-17.68"/><path d="M599.682 195.643c0 15.82-12.823 28.643-28.642 28.643-15.82 0-28.642-12.823-28.642-28.643S555.22 167 571.04 167s28.642 12.824 28.642 28.643" fill="#FFF"/><path fill="#FFF" d="M536.624 245.238l-29.843-52.045 30.25-51.812 60.088.23 29.844 52.05-30.245 51.818-60.084-.23"/><path d="M593.765 187.258c3.866 13.992-4.343 28.468-18.336 32.336-14 3.866-28.47-4.342-32.34-18.335-3.87-14 4.34-28.47 18.33-32.34 13.992-3.87 28.47 4.34 32.336 18.33" fill="#204460"/></g></svg>